<svg width="1080" height="1350" viewBox="0 0 1080 1350" fill="none" xmlns="http://www.w3.org/2000/svg">
  <defs>
    <linearGradient id="bg2" x1="100" y1="20" x2="940" y2="1330" gradientUnits="userSpaceOnUse">
      <stop stop-color="#111827"/>
      <stop offset="0.5" stop-color="#312E81"/>
      <stop offset="1" stop-color="#6D28D9"/>
    </linearGradient>
    <linearGradient id="chip2" x1="0" y1="0" x2="1" y2="1">
      <stop stop-color="#F59E0B"/>
      <stop offset="1" stop-color="#FB7185"/>
    </linearGradient>
  </defs>
  <rect width="1080" height="1350" rx="48" fill="url(#bg2)"/>
  <circle cx="870" cy="200" r="200" fill="#C084FC" fill-opacity="0.2"/>
  <circle cx="180" cy="1130" r="250" fill="#FDBA74" fill-opacity="0.15"/>
  <rect x="150" y="120" width="780" height="1110" rx="60" fill="#09090B" fill-opacity="0.72" stroke="#E5E7EB" stroke-opacity="0.22"/>
  <text x="210" y="232" fill="#F8FAFC" font-family="Arial, sans-serif" font-size="46" font-weight="700">Your Learning Feed</text>
  <text x="210" y="286" fill="#C4B5FD" font-family="Arial, sans-serif" font-size="26">Short videos, summaries, and MCQs in one flow.</text>
  <rect x="210" y="330" width="300" height="56" rx="28" fill="url(#chip2)"/>
  <text x="260" y="366" fill="#3F1D0D" font-family="Arial, sans-serif" font-size="24" font-weight="700">Retention Boost</text>
  <rect x="210" y="430" width="660" height="220" rx="28" fill="#18181B" stroke="#A78BFA" stroke-opacity="0.45"/>
  <text x="250" y="506" fill="#FAFAFA" font-family="Arial, sans-serif" font-size="32" font-weight="700">Topic: Neural Networks</text>
  <text x="250" y="554" fill="#D4D4D8" font-family="Arial, sans-serif" font-size="24">Watch a 90-sec concept card, then answer 1 MCQ.</text>
  <rect x="210" y="684" width="660" height="160" rx="24" fill="#18181B" stroke="#334155"/>
  <text x="250" y="750" fill="#E4E4E7" font-family="Arial, sans-serif" font-size="30" font-weight="700">Spaced Repetition Queue</text>
  <text x="250" y="792" fill="#A1A1AA" font-family="Arial, sans-serif" font-size="22">3 topics due for review right now</text>
  <rect x="210" y="878" width="660" height="300" rx="24" fill="#18181B" stroke="#334155"/>
  <rect x="250" y="930" width="580" height="60" rx="16" fill="#27272A"/>
  <rect x="250" y="1010" width="580" height="60" rx="16" fill="#27272A"/>
  <rect x="250" y="1090" width="580" height="60" rx="16" fill="#27272A"/>
</svg>
