<svg width="1080" height="1350" viewBox="0 0 1080 1350" fill="none" xmlns="http://www.w3.org/2000/svg">
  <defs>
    <linearGradient id="bg1" x1="80" y1="40" x2="980" y2="1320" gradientUnits="userSpaceOnUse">
      <stop stop-color="#0B1220"/>
      <stop offset="0.45" stop-color="#172554"/>
      <stop offset="1" stop-color="#1D4ED8"/>
    </linearGradient>
    <linearGradient id="chip1" x1="0" y1="0" x2="1" y2="1">
      <stop stop-color="#38BDF8"/>
      <stop offset="1" stop-color="#22D3EE"/>
    </linearGradient>
  </defs>
  <rect width="1080" height="1350" rx="48" fill="url(#bg1)"/>
  <circle cx="860" cy="240" r="240" fill="#38BDF8" fill-opacity="0.16"/>
  <circle cx="220" cy="1180" r="220" fill="#60A5FA" fill-opacity="0.2"/>
  <rect x="188" y="100" width="704" height="1150" rx="56" fill="#0B1329" fill-opacity="0.8" stroke="#E2E8F0" stroke-opacity="0.2"/>
  <rect x="234" y="180" width="612" height="340" rx="28" fill="#0F172A" stroke="#38BDF8" stroke-opacity="0.4"/>
  <text x="272" y="258" fill="#F8FAFC" font-family="Arial, sans-serif" font-size="44" font-weight="700">AI Micro Lesson</text>
  <text x="272" y="314" fill="#94A3B8" font-family="Arial, sans-serif" font-size="26">The dopamine loop rewards small wins.</text>
  <rect x="272" y="360" width="230" height="58" rx="29" fill="url(#chip1)"/>
  <text x="318" y="398" fill="#082F49" font-family="Arial, sans-serif" font-size="24" font-weight="700">Swipe to Learn</text>
  <rect x="234" y="560" width="612" height="170" rx="24" fill="#111827" stroke="#334155"/>
  <text x="272" y="632" fill="#E2E8F0" font-family="Arial, sans-serif" font-size="30" font-weight="700">MCQ Checkpoint</text>
  <text x="272" y="676" fill="#94A3B8" font-family="Arial, sans-serif" font-size="24">70% is forgotten in 24h without review.</text>
  <rect x="234" y="760" width="612" height="170" rx="24" fill="#111827" stroke="#334155"/>
  <text x="272" y="832" fill="#E2E8F0" font-family="Arial, sans-serif" font-size="30" font-weight="700">Adaptive Feed</text>
  <text x="272" y="876" fill="#94A3B8" font-family="Arial, sans-serif" font-size="24">Content adjusts to your weak topics.</text>
  <rect x="234" y="960" width="612" height="220" rx="24" fill="#0F172A" stroke="#60A5FA" stroke-opacity="0.4"/>
  <text x="272" y="1034" fill="#F8FAFC" font-family="Arial, sans-serif" font-size="30" font-weight="700">Focused Learning Session</text>
  <text x="272" y="1082" fill="#93C5FD" font-family="Arial, sans-serif" font-size="24">12 min streak • 8 lessons completed</text>
</svg>
